Coordinates
version=1
nRows=13
nColumns=38
inDegrees=yes

Units are S.I. units (second, meters, Newtons, ...)
Angles are in degrees.

endheader
time	pelvis_tilt	pelvis_list	pelvis_rotation	pelvis_tx	pelvis_ty	pelvis_tz	hip_flexion_r	hip_adduction_r	hip_rotation_r	knee_angle_r	ankle_angle_r	subtalar_angle_r	mtp_angle_r	hip_flexion_l	hip_adduction_l	hip_rotation_l	knee_angle_l	ankle_angle_l	subtalar_angle_l	mtp_angle_l	lumbar_extension	lumbar_bending	lumbar_rotation	arm_flex_r	arm_add_r	arm_rot_r	elbow_flex_r	pro_sup_r	wrist_flex_r	wrist_dev_r	arm_flex_l	arm_add_l	arm_rot_l	elbow_flex_l	pro_sup_l	wrist_flex_l	wrist_dev_l
      0.00000000	     -5.91319409	     -4.17718965	     -4.42607557	      0.33271902	      0.92251278	      0.03989524	     -4.09105494	      6.80760330	      3.69222815	     -7.81237938	     16.71398043	      0.00000000	      0.00000000	     34.27749707	     -9.59586732	    -16.33230203	     -8.69123222	      3.52942447	      0.00000000	      0.00000000	     -0.86357302	      3.36310047	     11.05203097	     11.85364182	    -12.84386124	     10.76810992	     49.75432004	    107.57003265	      0.00000000	      0.00000000	     -4.50045683	     -7.89302464	    -24.43259591	     24.01197805	    114.16478847	      0.00000000	      0.00000000
      0.00500000	     -5.91370614	     -4.03111283	     -4.42550849	      0.33759555	      0.92195950	      0.03939642	     -4.26428146	      6.60896667	      3.91918377	     -8.07315337	     16.82561545	      0.00000000	      0.00000000	     34.40042416	     -9.45751053	    -16.06387386	     -9.37279642	      3.20027260	      0.00000000	      0.00000000	     -0.88439307	      3.15929662	     10.99242923	     11.64745162	    -12.75269494	     10.82633088	     49.56216387	    107.54772840	      0.00000000	      0.00000000	     -4.27297463	     -7.90624332	    -24.38695865	     23.92576585	    114.17081511	      0.00000000	      0.00000000
      0.01000000	     -5.94445954	     -3.82431975	     -4.35400143	      0.34259955	      0.92140014	      0.03883727	     -4.33069272	      6.35485503	      3.92150679	     -8.50421435	     17.43757267	      0.00000000	      0.00000000	     34.54606342	     -9.23648196	    -15.92973168	    -10.03782290	      2.64311333	      0.00000000	      0.00000000	     -0.83388704	      2.90366232	     10.81770422	     11.49113037	    -12.55752441	     10.85366136	     49.14035785	    107.44013831	      0.00000000	      0.00000000	     -3.99519810	     -7.94400906	    -24.17842194	     23.53693821	    114.21796463	      0.00000000	      0.00000000
      0.01500000	     -5.93423504	     -3.68853681	     -4.40176580	      0.34760747	      0.92083568	      0.03832876	     -4.46293341	      6.15672522	      4.05824274	     -8.87532552	     17.56404264	      0.00000000	      0.00000000	     34.63789927	     -9.12387823	    -15.75625704	    -10.76863395	      2.47210069	      0.00000000	      0.00000000	     -0.87217193	      2.71698377	     10.79593450	     11.25363170	    -12.47071311	     10.89564552	     48.96939347	    107.40774839	      0.00000000	      0.00000000	     -3.80701200	     -7.92250103	    -24.08644563	     23.54046645	    114.24054101	      0.00000000	      0.00000000
      0.02000000	     -5.90327271	     -3.53596212	     -4.50512077	      0.35271514	      0.92031298	      0.03775676	     -4.54978113	      5.92204967	      4.09094902	     -9.39239237	     17.94497216	      0.00000000	      0.00000000	     34.71393809	     -9.02558873	    -15.85359848	    -11.52023157	      2.40862582	      0.00000000	      0.00000000	     -0.91744944	      2.53138455	     10.81145297	     11.03249693	    -12.35225023	     10.88121872	     48.72060482	    107.33152936	      0.00000000	      0.00000000	     -3.63267495	     -7.92182859	    -23.83818908	     23.45303738	    114.30680937	      0.00000000	      0.00000000
      0.02500000	     -5.84376183	     -3.45678220	     -4.45641272	      0.35823266	      0.91991161	      0.03707663	     -4.78565045	      5.78418217	      4.14833603	     -9.71616356	     17.99780731	      0.00000000	      0.00000000	     34.75755617	     -8.89420438	    -15.73083280	    -12.21413128	      2.24973501	      0.00000000	      0.00000000	     -0.93959764	      2.40536398	     10.70971804	     10.69139716	    -12.27057576	     10.90132116	     48.53594891	    107.30351507	      0.00000000	      0.00000000	     -3.49079370	     -7.90552053	    -23.71881243	     23.46026974	    114.33666879	      0.00000000	      0.00000000
      0.03000000	     -5.81040490	     -3.39958600	     -4.49374700	      0.36375022	      0.91954350	      0.03632832	     -4.97136456	      5.65528220	      4.23309522	    -10.06933153	     17.99165357	      0.00000000	      0.00000000	     34.74956384	     -8.79351428	    -15.59514167	    -12.76169276	      2.12638236	      0.00000000	      0.00000000	     -0.94140439	      2.33184582	     10.62998215	     10.34026676	    -12.18016397	     10.93719624	     48.38113079	    107.29447082	      0.00000000	      0.00000000	     -3.42609634	     -7.83870577	    -23.65369148	     23.46399931	    114.35210128	      0.00000000	      0.00000000
      0.03500000	     -5.68328407	     -3.26363762	     -4.38872403	      0.36933554	      0.91928983	      0.03582653	     -5.25616390	      5.46815734	      4.12638112	    -10.41610162	     18.15485510	      0.00000000	      0.00000000	     34.78787740	     -8.60895842	    -15.47407781	    -13.55338200	      1.99171504	      0.00000000	      0.00000000	     -1.04132991	      2.10428604	     10.53419434	     10.02307610	    -12.05475334	     10.91234130	     48.06745357	    107.24848521	      0.00000000	      0.00000000	     -3.19421022	     -7.89639618	    -23.41281226	     23.46767447	    114.41046422	      0.00000000	      0.00000000
      0.04000000	     -5.62545073	     -3.10392411	     -4.41208846	      0.37446029	      0.91894775	      0.03488170	     -5.35917570	      5.21269171	      4.12360919	    -10.91655494	     18.21017074	      0.00000000	      0.00000000	     34.81547481	     -8.38364119	    -15.25275047	    -14.16051465	      1.82663275	      0.00000000	      0.00000000	     -1.12930513	      1.90353957	     10.47717013	      9.76928106	    -11.98102089	     10.89871335	     47.81470738	    107.21556322	      0.00000000	      0.00000000	     -3.01090088	     -7.85933842	    -23.18698781	     23.50222408	    114.46370670	      0.00000000	      0.00000000
      0.04500000	     -5.57408027	     -2.96777677	     -4.43753095	      0.37983440	      0.91867507	      0.03392298	     -5.47233159	      4.98001347	      4.09732560	    -11.39700204	     18.25958222	      0.00000000	      0.00000000	     34.82086345	     -8.17225241	    -15.06611580	    -14.73260294	      1.59111100	      0.00000000	      0.00000000	     -1.14916810	      1.74586011	     10.42851833	      9.45651236	    -11.91502262	     10.89127308	     47.53685121	    107.18595022	      0.00000000	      0.00000000	     -2.85379928	     -7.82944040	    -22.95727789	     23.53172893	    114.51665338	      0.00000000	      0.00000000
      0.05000000	     -5.50159543	     -2.68263350	     -4.40727297	      0.38544899	      0.91852272	      0.03292125	     -5.58908174	      4.57478430	      3.86523789	    -11.91602785	     18.35560498	      0.00000000	      0.00000000	     34.69992239	     -7.77545695	    -14.95775941	    -15.09453402	      1.19341773	      0.00000000	      0.00000000	     -1.17030011	      1.42385480	     10.35474057	      9.14466205	    -11.68702972	     10.56334947	     46.93673161	    106.97000052	      0.00000000	      0.00000000	     -2.90324811	     -8.05147580	    -21.16651128	     23.61547283	    114.88276261	      0.00000000	      0.00000000
      0.05500000	     -5.46421191	     -2.60992159	     -4.44225811	      0.39076874	      0.91832042	      0.03202256	     -5.68785887	      4.41909033	      3.92466254	    -12.38545385	     18.28351952	      0.00000000	      0.00000000	     34.71534246	     -7.64323989	    -14.75177186	    -15.63593231	      0.84352132	      0.00000000	      0.00000000	     -1.21752931	      1.32647570	     10.33926737	      8.77500617	    -11.65315799	     10.60419994	     46.74933979	    106.96529464	      0.00000000	      0.00000000	     -2.72924124	     -7.98627361	    -21.07094454	     23.70886466	    114.88305075	      0.00000000	      0.00000000
      0.06000000	     -5.43615447	     -2.52234855	     -4.49011676	      0.39631046	      0.91817205	      0.03120401	     -5.78456766	      4.24631366	      4.01650610	    -12.86477941	     18.19863870	      0.00000000	      0.00000000	     34.66718003	     -7.50429837	    -14.50481903	    -16.07300270	      0.48581931	      0.00000000	      0.00000000	     -1.21611689	      1.19606932	     10.33033236	      8.38654159	    -11.60567593	     10.63194353	     46.52328922	    106.95800713	      0.00000000	      0.00000000	     -2.60005635	     -7.97699085	    -20.98120816	     23.77938475	    114.88941444	      0.00000000	      0.00000000
